<?xml version="1.0" encoding="UTF-8"?>
<svg id="Layer_2" data-name="Layer 2" xmlns="http://www.w3.org/2000/svg" viewBox="0 0 540.25 768">
  <g id="Layer_2-2" data-name="Layer 2">
    <polygon points="0 0 0 251.7 540.25 154 540.25 0 0 0" fill="#edce18"/>
    <polygon points="0 496.1 0 251.7 540.25 154 540.25 404.95 0 496.1" fill="#fffa4d"/>
    <polygon points="0 768 0 496.1 540.25 404.95 540.25 768 0 768" fill="#ca6b50"/>
    <circle cx="536.25" cy="141" r="2" fill="#fff"/>
    <circle cx="4.25" cy="160" r="2" fill="#fff"/>
    <circle cx="4.25" cy="7" r="2" fill="#fff"/>
    <circle cx="4.25" cy="24" r="2" fill="#fff"/>
    <circle cx="4.25" cy="41" r="2" fill="#fff"/>
    <circle cx="4.25" cy="58" r="2" fill="#fff"/>
    <circle cx="4.25" cy="75" r="2" fill="#fff"/>
    <circle cx="4.25" cy="92" r="2" fill="#fff"/>
    <circle cx="4.25" cy="109" r="2" fill="#fff"/>
    <circle cx="4.25" cy="143" r="2" fill="#fff"/>
    <circle cx="4.25" cy="126" r="2" fill="#fff"/>
    <circle cx="4.25" cy="177" r="2" fill="#fff"/>
    <circle cx="4.25" cy="194" r="2" fill="#fff"/>
    <circle cx="4.25" cy="211" r="2" fill="#fff"/>
    <circle cx="4.25" cy="228" r="2" fill="#fff"/>
    <circle cx="4.25" cy="245" r="2" fill="#fff"/>
    <circle cx="14.25" cy="151" r="2" fill="#fff"/>
    <circle cx="14.25" cy="15" r="2" fill="#fff"/>
    <circle cx="14.25" cy="32" r="2" fill="#fff"/>
    <circle cx="14.25" cy="49" r="2" fill="#fff"/>
    <circle cx="14.25" cy="66" r="2" fill="#fff"/>
    <circle cx="14.25" cy="83" r="2" fill="#fff"/>
    <circle cx="14.25" cy="100" r="2" fill="#fff"/>
    <circle cx="14.25" cy="134" r="2" fill="#fff"/>
    <circle cx="14.25" cy="117" r="2" fill="#fff"/>
    <circle cx="14.25" cy="168" r="2" fill="#fff"/>
    <circle cx="14.25" cy="185" r="2" fill="#fff"/>
    <circle cx="14.25" cy="202" r="2" fill="#fff"/>
    <circle cx="14.25" cy="219" r="2" fill="#fff"/>
    <circle cx="14.25" cy="236" r="2" fill="#fff"/>
    <circle cx="24.25" cy="160" r="2" fill="#fff"/>
    <circle cx="24.25" cy="7" r="2" fill="#fff"/>
    <circle cx="24.25" cy="24" r="2" fill="#fff"/>
    <circle cx="24.25" cy="41" r="2" fill="#fff"/>
    <circle cx="24.25" cy="58" r="2" fill="#fff"/>
    <circle cx="24.25" cy="75" r="2" fill="#fff"/>
    <circle cx="24.25" cy="92" r="2" fill="#fff"/>
    <circle cx="24.25" cy="109" r="2" fill="#fff"/>
    <circle cx="24.25" cy="143" r="2" fill="#fff"/>
    <circle cx="24.25" cy="126" r="2" fill="#fff"/>
    <circle cx="24.25" cy="177" r="2" fill="#fff"/>
    <circle cx="24.25" cy="194" r="2" fill="#fff"/>
    <circle cx="24.25" cy="211" r="2" fill="#fff"/>
    <circle cx="24.25" cy="228" r="2" fill="#fff"/>
    <circle cx="24.25" cy="245" r="2" fill="#fff"/>
    <circle cx="34.25" cy="151" r="2" fill="#fff"/>
    <circle cx="34.25" cy="15" r="2" fill="#fff"/>
    <circle cx="34.25" cy="32" r="2" fill="#fff"/>
    <circle cx="34.25" cy="49" r="2" fill="#fff"/>
    <circle cx="34.25" cy="66" r="2" fill="#fff"/>
    <circle cx="34.25" cy="83" r="2" fill="#fff"/>
    <circle cx="34.25" cy="100" r="2" fill="#fff"/>
    <circle cx="34.25" cy="134" r="2" fill="#fff"/>
    <circle cx="34.25" cy="117" r="2" fill="#fff"/>
    <circle cx="34.25" cy="168" r="2" fill="#fff"/>
    <circle cx="34.25" cy="185" r="2" fill="#fff"/>
    <circle cx="34.25" cy="202" r="2" fill="#fff"/>
    <circle cx="34.25" cy="219" r="2" fill="#fff"/>
    <circle cx="34.25" cy="236" r="2" fill="#fff"/>
    <circle cx="45.25" cy="160" r="2" fill="#fff"/>
    <circle cx="45.25" cy="7" r="2" fill="#fff"/>
    <circle cx="45.25" cy="24" r="2" fill="#fff"/>
    <circle cx="45.25" cy="41" r="2" fill="#fff"/>
    <circle cx="45.25" cy="58" r="2" fill="#fff"/>
    <circle cx="45.25" cy="75" r="2" fill="#fff"/>
    <circle cx="45.25" cy="92" r="2" fill="#fff"/>
    <circle cx="45.25" cy="109" r="2" fill="#fff"/>
    <circle cx="45.25" cy="143" r="2" fill="#fff"/>
    <circle cx="45.25" cy="126" r="2" fill="#fff"/>
    <circle cx="45.25" cy="177" r="2" fill="#fff"/>
    <circle cx="45.25" cy="194" r="2" fill="#fff"/>
    <circle cx="45.25" cy="211" r="2" fill="#fff"/>
    <circle cx="45.25" cy="228" r="2" fill="#fff"/>
    <path d="M45.74,243.48c.31,0,.6,.03,.89,.07-.36-.34-.84-.55-1.38-.55-.72,0-1.34,.38-1.69,.95,.62-.29,1.34-.47,2.18-.47Z" fill="#fff"/>
    <circle cx="56.25" cy="151" r="2" fill="#fff"/>
    <circle cx="56.25" cy="15" r="2" fill="#fff"/>
    <circle cx="56.25" cy="32" r="2" fill="#fff"/>
    <circle cx="56.25" cy="49" r="2" fill="#fff"/>
    <circle cx="56.25" cy="66" r="2" fill="#fff"/>
    <circle cx="56.25" cy="83" r="2" fill="#fff"/>
    <circle cx="56.25" cy="100" r="2" fill="#fff"/>
    <circle cx="56.25" cy="134" r="2" fill="#fff"/>
    <circle cx="56.25" cy="117" r="2" fill="#fff"/>
    <circle cx="56.25" cy="168" r="2" fill="#fff"/>
    <circle cx="56.25" cy="185" r="2" fill="#fff"/>
    <circle cx="56.25" cy="202" r="2" fill="#fff"/>
    <circle cx="56.25" cy="219" r="2" fill="#fff"/>
    <circle cx="56.25" cy="236" r="2" fill="#fff"/>
    <circle cx="66.25" cy="142" r="2" fill="#fff"/>
    <circle cx="66.25" cy="6" r="2" fill="#fff"/>
    <circle cx="66.25" cy="23" r="2" fill="#fff"/>
    <circle cx="66.25" cy="40" r="2" fill="#fff"/>
    <circle cx="66.25" cy="57" r="2" fill="#fff"/>
    <circle cx="66.25" cy="74" r="2" fill="#fff"/>
    <circle cx="66.25" cy="91" r="2" fill="#fff"/>
    <circle cx="66.25" cy="125" r="2" fill="#fff"/>
    <circle cx="66.25" cy="108" r="2" fill="#fff"/>
    <circle cx="66.25" cy="159" r="2" fill="#fff"/>
    <circle cx="66.25" cy="176" r="2" fill="#fff"/>
    <circle cx="66.25" cy="193" r="2" fill="#fff"/>
    <circle cx="66.25" cy="210" r="2" fill="#fff"/>
    <circle cx="66.25" cy="227" r="2" fill="#fff"/>
    <circle cx="76.25" cy="151" r="2" fill="#fff"/>
    <circle cx="76.25" cy="15" r="2" fill="#fff"/>
    <circle cx="76.25" cy="32" r="2" fill="#fff"/>
    <circle cx="76.25" cy="49" r="2" fill="#fff"/>
    <circle cx="76.25" cy="66" r="2" fill="#fff"/>
    <circle cx="76.25" cy="83" r="2" fill="#fff"/>
    <circle cx="76.25" cy="100" r="2" fill="#fff"/>
    <circle cx="76.25" cy="134" r="2" fill="#fff"/>
    <circle cx="76.25" cy="117" r="2" fill="#fff"/>
    <circle cx="76.25" cy="168" r="2" fill="#fff"/>
    <circle cx="76.25" cy="185" r="2" fill="#fff"/>
    <circle cx="76.25" cy="202" r="2" fill="#fff"/>
    <circle cx="76.25" cy="219" r="2" fill="#fff"/>
    <circle cx="76.25" cy="236" r="2" fill="#fff"/>
    <circle cx="86.25" cy="142" r="2" fill="#fff"/>
    <circle cx="86.25" cy="6" r="2" fill="#fff"/>
    <circle cx="86.25" cy="23" r="2" fill="#fff"/>
    <circle cx="86.25" cy="40" r="2" fill="#fff"/>
    <circle cx="86.25" cy="57" r="2" fill="#fff"/>
    <circle cx="86.25" cy="74" r="2" fill="#fff"/>
    <circle cx="86.25" cy="91" r="2" fill="#fff"/>
    <circle cx="86.25" cy="125" r="2" fill="#fff"/>
    <circle cx="86.25" cy="108" r="2" fill="#fff"/>
    <circle cx="86.25" cy="159" r="2" fill="#fff"/>
    <circle cx="86.25" cy="176" r="2" fill="#fff"/>
    <circle cx="86.25" cy="193" r="2" fill="#fff"/>
    <circle cx="86.25" cy="210" r="2" fill="#fff"/>
    <circle cx="86.25" cy="227" r="2" fill="#fff"/>
    <circle cx="97.25" cy="151" r="2" fill="#fff"/>
    <circle cx="97.25" cy="15" r="2" fill="#fff"/>
    <circle cx="97.25" cy="32" r="2" fill="#fff"/>
    <circle cx="97.25" cy="49" r="2" fill="#fff"/>
    <circle cx="97.25" cy="66" r="2" fill="#fff"/>
    <circle cx="97.25" cy="83" r="2" fill="#fff"/>
    <circle cx="97.25" cy="100" r="2" fill="#fff"/>
    <circle cx="97.25" cy="134" r="2" fill="#fff"/>
    <circle cx="97.25" cy="117" r="2" fill="#fff"/>
    <circle cx="97.25" cy="168" r="2" fill="#fff"/>
    <circle cx="97.25" cy="185" r="2" fill="#fff"/>
    <circle cx="97.25" cy="202" r="2" fill="#fff"/>
    <circle cx="97.25" cy="219" r="2" fill="#fff"/>
    <circle cx="105.25" cy="143" r="2" fill="#fff"/>
    <circle cx="105.25" cy="7" r="2" fill="#fff"/>
    <circle cx="105.25" cy="24" r="2" fill="#fff"/>
    <circle cx="105.25" cy="41" r="2" fill="#fff"/>
    <circle cx="105.25" cy="58" r="2" fill="#fff"/>
    <circle cx="105.25" cy="75" r="2" fill="#fff"/>
    <circle cx="105.25" cy="92" r="2" fill="#fff"/>
    <circle cx="105.25" cy="126" r="2" fill="#fff"/>
    <circle cx="105.25" cy="109" r="2" fill="#fff"/>
    <circle cx="105.25" cy="160" r="2" fill="#fff"/>
    <circle cx="105.25" cy="177" r="2" fill="#fff"/>
    <circle cx="105.25" cy="194" r="2" fill="#fff"/>
    <circle cx="105.25" cy="211" r="2" fill="#fff"/>
    <circle cx="105.25" cy="228" r="2" fill="#fff"/>
    <circle cx="115.25" cy="134" r="2" fill="#fff"/>
    <circle cx="115.25" cy="15" r="2" fill="#fff"/>
    <circle cx="115.25" cy="32" r="2" fill="#fff"/>
    <circle cx="115.25" cy="49" r="2" fill="#fff"/>
    <circle cx="115.25" cy="66" r="2" fill="#fff"/>
    <circle cx="115.25" cy="83" r="2" fill="#fff"/>
    <circle cx="115.25" cy="117" r="2" fill="#fff"/>
    <circle cx="115.25" cy="100" r="2" fill="#fff"/>
    <circle cx="115.25" cy="151" r="2" fill="#fff"/>
    <circle cx="115.25" cy="168" r="2" fill="#fff"/>
    <circle cx="115.25" cy="185" r="2" fill="#fff"/>
    <circle cx="115.25" cy="202" r="2" fill="#fff"/>
    <circle cx="115.25" cy="219" r="2" fill="#fff"/>
    <circle cx="125.25" cy="143" r="2" fill="#fff"/>
    <circle cx="125.25" cy="7" r="2" fill="#fff"/>
    <circle cx="125.25" cy="24" r="2" fill="#fff"/>
    <circle cx="125.25" cy="41" r="2" fill="#fff"/>
    <circle cx="125.25" cy="58" r="2" fill="#fff"/>
    <circle cx="125.25" cy="75" r="2" fill="#fff"/>
    <circle cx="125.25" cy="92" r="2" fill="#fff"/>
    <circle cx="125.25" cy="126" r="2" fill="#fff"/>
    <circle cx="125.25" cy="109" r="2" fill="#fff"/>
    <circle cx="125.25" cy="160" r="2" fill="#fff"/>
    <circle cx="125.25" cy="177" r="2" fill="#fff"/>
    <circle cx="125.25" cy="194" r="2" fill="#fff"/>
    <circle cx="125.25" cy="211" r="2" fill="#fff"/>
    <path d="M125.59,229.11s.02,0,.04,0c.44-.17,.92-.28,1.45-.31,.11-.25,.18-.51,.18-.8,0-1.1-.9-2-2-2s-2,.9-2,2c0,.55,.23,1.04,.59,1.4,.52-.18,1.1-.29,1.75-.29Z" fill="#fff"/>
    <circle cx="135.25" cy="134" r="2" fill="#fff"/>
    <circle cx="135.25" cy="15" r="2" fill="#fff"/>
    <circle cx="135.25" cy="32" r="2" fill="#fff"/>
    <circle cx="135.25" cy="49" r="2" fill="#fff"/>
    <circle cx="135.25" cy="66" r="2" fill="#fff"/>
    <circle cx="135.25" cy="83" r="2" fill="#fff"/>
    <circle cx="135.25" cy="117" r="2" fill="#fff"/>
    <circle cx="135.25" cy="100" r="2" fill="#fff"/>
    <circle cx="135.25" cy="151" r="2" fill="#fff"/>
    <circle cx="135.25" cy="168" r="2" fill="#fff"/>
    <circle cx="135.25" cy="185" r="2" fill="#fff"/>
    <circle cx="135.25" cy="202" r="2" fill="#fff"/>
    <circle cx="135.25" cy="219" r="2" fill="#fff"/>
    <circle cx="146.25" cy="143" r="2" fill="#fff"/>
    <circle cx="146.25" cy="7" r="2" fill="#fff"/>
    <circle cx="146.25" cy="24" r="2" fill="#fff"/>
    <circle cx="146.25" cy="41" r="2" fill="#fff"/>
    <circle cx="146.25" cy="58" r="2" fill="#fff"/>
    <circle cx="146.25" cy="75" r="2" fill="#fff"/>
    <circle cx="146.25" cy="92" r="2" fill="#fff"/>
    <circle cx="146.25" cy="126" r="2" fill="#fff"/>
    <circle cx="146.25" cy="109" r="2" fill="#fff"/>
    <circle cx="146.25" cy="160" r="2" fill="#fff"/>
    <circle cx="146.25" cy="177" r="2" fill="#fff"/>
    <circle cx="146.25" cy="194" r="2" fill="#fff"/>
    <circle cx="146.25" cy="211" r="2" fill="#fff"/>
    <circle cx="157.25" cy="134" r="2" fill="#fff"/>
    <circle cx="157.25" cy="15" r="2" fill="#fff"/>
    <circle cx="157.25" cy="32" r="2" fill="#fff"/>
    <circle cx="157.25" cy="49" r="2" fill="#fff"/>
    <circle cx="157.25" cy="66" r="2" fill="#fff"/>
    <circle cx="157.25" cy="83" r="2" fill="#fff"/>
    <circle cx="157.25" cy="117" r="2" fill="#fff"/>
    <circle cx="157.25" cy="100" r="2" fill="#fff"/>
    <circle cx="157.25" cy="151" r="2" fill="#fff"/>
    <circle cx="157.25" cy="168" r="2" fill="#fff"/>
    <circle cx="157.25" cy="185" r="2" fill="#fff"/>
    <circle cx="157.25" cy="202" r="2" fill="#fff"/>
    <circle cx="157.25" cy="219" r="2" fill="#fff"/>
    <circle cx="167.25" cy="125" r="2" fill="#fff"/>
    <circle cx="167.25" cy="6" r="2" fill="#fff"/>
    <circle cx="167.25" cy="23" r="2" fill="#fff"/>
    <circle cx="167.25" cy="40" r="2" fill="#fff"/>
    <circle cx="167.25" cy="57" r="2" fill="#fff"/>
    <circle cx="167.25" cy="74" r="2" fill="#fff"/>
    <circle cx="167.25" cy="108" r="2" fill="#fff"/>
    <circle cx="167.25" cy="91" r="2" fill="#fff"/>
    <circle cx="167.25" cy="142" r="2" fill="#fff"/>
    <circle cx="167.25" cy="159" r="2" fill="#fff"/>
    <circle cx="167.25" cy="176" r="2" fill="#fff"/>
    <circle cx="167.25" cy="193" r="2" fill="#fff"/>
    <circle cx="167.25" cy="210" r="2" fill="#fff"/>
    <circle cx="177.25" cy="134" r="2" fill="#fff"/>
    <circle cx="177.25" cy="15" r="2" fill="#fff"/>
    <circle cx="177.25" cy="32" r="2" fill="#fff"/>
    <circle cx="177.25" cy="49" r="2" fill="#fff"/>
    <circle cx="177.25" cy="66" r="2" fill="#fff"/>
    <circle cx="177.25" cy="83" r="2" fill="#fff"/>
    <circle cx="177.25" cy="117" r="2" fill="#fff"/>
    <circle cx="177.25" cy="100" r="2" fill="#fff"/>
    <circle cx="177.25" cy="151" r="2" fill="#fff"/>
    <circle cx="177.25" cy="168" r="2" fill="#fff"/>
    <circle cx="177.25" cy="185" r="2" fill="#fff"/>
    <circle cx="177.25" cy="202" r="2" fill="#fff"/>
    <path d="M176.65,219.9c.7-.43,1.56-.69,2.58-.7,0-.07,.03-.13,.03-.21,0-1.1-.9-2-2-2s-2,.9-2,2c0,.41,.13,.78,.35,1.1,.32-.1,.68-.16,1.04-.19Z" fill="#fff"/>
    <circle cx="187.25" cy="125" r="2" fill="#fff"/>
    <circle cx="187.25" cy="6" r="2" fill="#fff"/>
    <circle cx="187.25" cy="23" r="2" fill="#fff"/>
    <circle cx="187.25" cy="40" r="2" fill="#fff"/>
    <circle cx="187.25" cy="57" r="2" fill="#fff"/>
    <circle cx="187.25" cy="74" r="2" fill="#fff"/>
    <circle cx="187.25" cy="108" r="2" fill="#fff"/>
    <circle cx="187.25" cy="91" r="2" fill="#fff"/>
    <circle cx="187.25" cy="142" r="2" fill="#fff"/>
    <circle cx="187.25" cy="159" r="2" fill="#fff"/>
    <circle cx="187.25" cy="176" r="2" fill="#fff"/>
    <circle cx="187.25" cy="193" r="2" fill="#fff"/>
    <circle cx="187.25" cy="210" r="2" fill="#fff"/>
    <circle cx="198.25" cy="134" r="2" fill="#fff"/>
    <circle cx="198.25" cy="15" r="2" fill="#fff"/>
    <circle cx="198.25" cy="32" r="2" fill="#fff"/>
    <circle cx="198.25" cy="49" r="2" fill="#fff"/>
    <circle cx="198.25" cy="66" r="2" fill="#fff"/>
    <circle cx="198.25" cy="83" r="2" fill="#fff"/>
    <circle cx="198.25" cy="117" r="2" fill="#fff"/>
    <circle cx="198.25" cy="100" r="2" fill="#fff"/>
    <circle cx="198.25" cy="151" r="2" fill="#fff"/>
    <circle cx="198.25" cy="168" r="2" fill="#fff"/>
    <circle cx="198.25" cy="185" r="2" fill="#fff"/>
    <circle cx="198.25" cy="202" r="2" fill="#fff"/>
    <circle cx="208.25" cy="143" r="2" fill="#fff"/>
    <circle cx="208.25" cy="7" r="2" fill="#fff"/>
    <circle cx="208.25" cy="24" r="2" fill="#fff"/>
    <circle cx="208.25" cy="41" r="2" fill="#fff"/>
    <circle cx="208.25" cy="58" r="2" fill="#fff"/>
    <circle cx="208.25" cy="75" r="2" fill="#fff"/>
    <circle cx="208.25" cy="92" r="2" fill="#fff"/>
    <circle cx="208.25" cy="126" r="2" fill="#fff"/>
    <circle cx="208.25" cy="109" r="2" fill="#fff"/>
    <circle cx="208.25" cy="160" r="2" fill="#fff"/>
    <circle cx="208.25" cy="177" r="2" fill="#fff"/>
    <circle cx="208.25" cy="194" r="2" fill="#fff"/>
    <circle cx="208.25" cy="211" r="2" fill="#fff"/>
    <circle cx="218.25" cy="134" r="2" fill="#fff"/>
    <circle cx="218.25" cy="15" r="2" fill="#fff"/>
    <circle cx="218.25" cy="32" r="2" fill="#fff"/>
    <circle cx="218.25" cy="49" r="2" fill="#fff"/>
    <circle cx="218.25" cy="66" r="2" fill="#fff"/>
    <circle cx="218.25" cy="83" r="2" fill="#fff"/>
    <circle cx="218.25" cy="117" r="2" fill="#fff"/>
    <circle cx="218.25" cy="100" r="2" fill="#fff"/>
    <circle cx="218.25" cy="151" r="2" fill="#fff"/>
    <circle cx="218.25" cy="168" r="2" fill="#fff"/>
    <circle cx="218.25" cy="185" r="2" fill="#fff"/>
    <circle cx="218.25" cy="202" r="2" fill="#fff"/>
    <circle cx="228.25" cy="143" r="2" fill="#fff"/>
    <circle cx="228.25" cy="7" r="2" fill="#fff"/>
    <circle cx="228.25" cy="24" r="2" fill="#fff"/>
    <circle cx="228.25" cy="41" r="2" fill="#fff"/>
    <circle cx="228.25" cy="58" r="2" fill="#fff"/>
    <circle cx="228.25" cy="75" r="2" fill="#fff"/>
    <circle cx="228.25" cy="92" r="2" fill="#fff"/>
    <circle cx="228.25" cy="126" r="2" fill="#fff"/>
    <circle cx="228.25" cy="109" r="2" fill="#fff"/>
    <circle cx="228.25" cy="160" r="2" fill="#fff"/>
    <circle cx="228.25" cy="177" r="2" fill="#fff"/>
    <circle cx="228.25" cy="194" r="2" fill="#fff"/>
    <path d="M228.8,210.37c.51,0,.97,.07,1.4,.18-.2-.89-1-1.55-1.95-1.55-1.1,0-2,.9-2,2v.02c.69-.41,1.54-.65,2.54-.65Z" fill="#fff"/>
    <circle cx="238.25" cy="134" r="2" fill="#fff"/>
    <circle cx="238.25" cy="15" r="2" fill="#fff"/>
    <circle cx="238.25" cy="32" r="2" fill="#fff"/>
    <circle cx="238.25" cy="49" r="2" fill="#fff"/>
    <circle cx="238.25" cy="66" r="2" fill="#fff"/>
    <circle cx="238.25" cy="83" r="2" fill="#fff"/>
    <circle cx="238.25" cy="117" r="2" fill="#fff"/>
    <circle cx="238.25" cy="100" r="2" fill="#fff"/>
    <circle cx="238.25" cy="151" r="2" fill="#fff"/>
    <circle cx="238.25" cy="168" r="2" fill="#fff"/>
    <circle cx="238.25" cy="185" r="2" fill="#fff"/>
    <circle cx="238.25" cy="202" r="2" fill="#fff"/>
    <circle cx="249.25" cy="143" r="2" fill="#fff"/>
    <circle cx="249.25" cy="7" r="2" fill="#fff"/>
    <circle cx="249.25" cy="24" r="2" fill="#fff"/>
    <circle cx="249.25" cy="41" r="2" fill="#fff"/>
    <circle cx="249.25" cy="58" r="2" fill="#fff"/>
    <circle cx="249.25" cy="75" r="2" fill="#fff"/>
    <circle cx="249.25" cy="92" r="2" fill="#fff"/>
    <circle cx="249.25" cy="126" r="2" fill="#fff"/>
    <circle cx="249.25" cy="109" r="2" fill="#fff"/>
    <circle cx="249.25" cy="160" r="2" fill="#fff"/>
    <circle cx="249.25" cy="177" r="2" fill="#fff"/>
    <circle cx="249.25" cy="194" r="2" fill="#fff"/>
    <circle cx="260.25" cy="134" r="2" fill="#fff"/>
    <circle cx="260.25" cy="15" r="2" fill="#fff"/>
    <circle cx="260.25" cy="32" r="2" fill="#fff"/>
    <circle cx="260.25" cy="49" r="2" fill="#fff"/>
    <circle cx="260.25" cy="66" r="2" fill="#fff"/>
    <circle cx="260.25" cy="83" r="2" fill="#fff"/>
    <circle cx="260.25" cy="117" r="2" fill="#fff"/>
    <circle cx="260.25" cy="100" r="2" fill="#fff"/>
    <circle cx="260.25" cy="151" r="2" fill="#fff"/>
    <circle cx="260.25" cy="168" r="2" fill="#fff"/>
    <circle cx="260.25" cy="185" r="2" fill="#fff"/>
    <circle cx="260.25" cy="202" r="2" fill="#fff"/>
    <circle cx="270.25" cy="125" r="2" fill="#fff"/>
    <circle cx="270.25" cy="6" r="2" fill="#fff"/>
    <circle cx="270.25" cy="23" r="2" fill="#fff"/>
    <circle cx="270.25" cy="40" r="2" fill="#fff"/>
    <circle cx="270.25" cy="57" r="2" fill="#fff"/>
    <circle cx="270.25" cy="74" r="2" fill="#fff"/>
    <circle cx="270.25" cy="108" r="2" fill="#fff"/>
    <circle cx="270.25" cy="91" r="2" fill="#fff"/>
    <circle cx="270.25" cy="142" r="2" fill="#fff"/>
    <circle cx="270.25" cy="159" r="2" fill="#fff"/>
    <circle cx="270.25" cy="176" r="2" fill="#fff"/>
    <circle cx="270.25" cy="193" r="2" fill="#fff"/>
    <circle cx="280.25" cy="134" r="2" fill="#fff"/>
    <circle cx="280.25" cy="15" r="2" fill="#fff"/>
    <circle cx="280.25" cy="32" r="2" fill="#fff"/>
    <circle cx="280.25" cy="49" r="2" fill="#fff"/>
    <circle cx="280.25" cy="66" r="2" fill="#fff"/>
    <circle cx="280.25" cy="83" r="2" fill="#fff"/>
    <circle cx="280.25" cy="117" r="2" fill="#fff"/>
    <circle cx="280.25" cy="100" r="2" fill="#fff"/>
    <circle cx="280.25" cy="151" r="2" fill="#fff"/>
    <circle cx="280.25" cy="168" r="2" fill="#fff"/>
    <circle cx="280.25" cy="185" r="2" fill="#fff"/>
    <path d="M280.02,201.4c.53-.3,1.14-.5,1.85-.58-.36-.5-.95-.82-1.61-.82-.94,0-1.72,.65-1.93,1.51,.39-.09,.81-.15,1.26-.15,.15,0,.29,.02,.44,.03Z" fill="#fff"/>
    <circle cx="290.25" cy="125" r="2" fill="#fff"/>
    <circle cx="290.25" cy="6" r="2" fill="#fff"/>
    <circle cx="290.25" cy="23" r="2" fill="#fff"/>
    <circle cx="290.25" cy="40" r="2" fill="#fff"/>
    <circle cx="290.25" cy="57" r="2" fill="#fff"/>
    <circle cx="290.25" cy="74" r="2" fill="#fff"/>
    <circle cx="290.25" cy="108" r="2" fill="#fff"/>
    <circle cx="290.25" cy="91" r="2" fill="#fff"/>
    <circle cx="290.25" cy="142" r="2" fill="#fff"/>
    <circle cx="290.25" cy="159" r="2" fill="#fff"/>
    <circle cx="290.25" cy="176" r="2" fill="#fff"/>
    <circle cx="290.25" cy="193" r="2" fill="#fff"/>
    <circle cx="301.25" cy="134" r="2" fill="#fff"/>
    <circle cx="301.25" cy="15" r="2" fill="#fff"/>
    <circle cx="301.25" cy="32" r="2" fill="#fff"/>
    <circle cx="301.25" cy="49" r="2" fill="#fff"/>
    <circle cx="301.25" cy="66" r="2" fill="#fff"/>
    <circle cx="301.25" cy="83" r="2" fill="#fff"/>
    <circle cx="301.25" cy="117" r="2" fill="#fff"/>
    <circle cx="301.25" cy="100" r="2" fill="#fff"/>
    <circle cx="301.25" cy="151" r="2" fill="#fff"/>
    <circle cx="301.25" cy="168" r="2" fill="#fff"/>
    <circle cx="301.25" cy="185" r="2" fill="#fff"/>
    <circle cx="312.25" cy="124" r="2" fill="#fff"/>
    <circle cx="312.25" cy="5" r="2" fill="#fff"/>
    <circle cx="312.25" cy="22" r="2" fill="#fff"/>
    <circle cx="312.25" cy="39" r="2" fill="#fff"/>
    <circle cx="312.25" cy="56" r="2" fill="#fff"/>
    <circle cx="312.25" cy="73" r="2" fill="#fff"/>
    <circle cx="312.25" cy="107" r="2" fill="#fff"/>
    <circle cx="312.25" cy="90" r="2" fill="#fff"/>
    <circle cx="312.25" cy="141" r="2" fill="#fff"/>
    <circle cx="312.25" cy="158" r="2" fill="#fff"/>
    <circle cx="312.25" cy="175" r="2" fill="#fff"/>
    <circle cx="312.25" cy="192" r="2" fill="#fff"/>
    <circle cx="322.25" cy="115" r="2" fill="#fff"/>
    <circle cx="322.25" cy="13" r="2" fill="#fff"/>
    <circle cx="322.25" cy="30" r="2" fill="#fff"/>
    <circle cx="322.25" cy="47" r="2" fill="#fff"/>
    <circle cx="322.25" cy="64" r="2" fill="#fff"/>
    <circle cx="322.25" cy="98" r="2" fill="#fff"/>
    <circle cx="322.25" cy="81" r="2" fill="#fff"/>
    <circle cx="322.25" cy="132" r="2" fill="#fff"/>
    <circle cx="322.25" cy="149" r="2" fill="#fff"/>
    <circle cx="322.25" cy="166" r="2" fill="#fff"/>
    <circle cx="322.25" cy="183" r="2" fill="#fff"/>
    <circle cx="332.25" cy="124" r="2" fill="#fff"/>
    <circle cx="332.25" cy="5" r="2" fill="#fff"/>
    <circle cx="332.25" cy="22" r="2" fill="#fff"/>
    <circle cx="332.25" cy="39" r="2" fill="#fff"/>
    <circle cx="332.25" cy="56" r="2" fill="#fff"/>
    <circle cx="332.25" cy="73" r="2" fill="#fff"/>
    <circle cx="332.25" cy="107" r="2" fill="#fff"/>
    <circle cx="332.25" cy="90" r="2" fill="#fff"/>
    <circle cx="332.25" cy="141" r="2" fill="#fff"/>
    <circle cx="332.25" cy="158" r="2" fill="#fff"/>
    <circle cx="332.25" cy="175" r="2" fill="#fff"/>
    <path d="M332.23,191.93c.41-.17,.88-.27,1.37-.33,.14-.02,.28-.03,.43-.04,.06,0,.1-.02,.16-.02-.21-.88-1-1.55-1.94-1.55-1.1,0-2,.89-2,2,.37-.08,.76-.12,1.18-.12,.28,0,.55,.02,.8,.06Z" fill="#fff"/>
    <circle cx="342.25" cy="115" r="2" fill="#fff"/>
    <circle cx="342.25" cy="13" r="2" fill="#fff"/>
    <circle cx="342.25" cy="30" r="2" fill="#fff"/>
    <circle cx="342.25" cy="47" r="2" fill="#fff"/>
    <circle cx="342.25" cy="64" r="2" fill="#fff"/>
    <circle cx="342.25" cy="98" r="2" fill="#fff"/>
    <circle cx="342.25" cy="81" r="2" fill="#fff"/>
    <circle cx="342.25" cy="132" r="2" fill="#fff"/>
    <circle cx="342.25" cy="149" r="2" fill="#fff"/>
    <circle cx="342.25" cy="166" r="2" fill="#fff"/>
    <circle cx="342.25" cy="183" r="2" fill="#fff"/>
    <circle cx="353.25" cy="124" r="2" fill="#fff"/>
    <circle cx="353.25" cy="5" r="2" fill="#fff"/>
    <circle cx="353.25" cy="22" r="2" fill="#fff"/>
    <circle cx="353.25" cy="39" r="2" fill="#fff"/>
    <circle cx="353.25" cy="56" r="2" fill="#fff"/>
    <circle cx="353.25" cy="73" r="2" fill="#fff"/>
    <circle cx="353.25" cy="107" r="2" fill="#fff"/>
    <circle cx="353.25" cy="90" r="2" fill="#fff"/>
    <circle cx="353.25" cy="141" r="2" fill="#fff"/>
    <circle cx="353.25" cy="158" r="2" fill="#fff"/>
    <circle cx="353.25" cy="175" r="2" fill="#fff"/>
    <circle cx="364.25" cy="115" r="2" fill="#fff"/>
    <circle cx="364.25" cy="13" r="2" fill="#fff"/>
    <circle cx="364.25" cy="30" r="2" fill="#fff"/>
    <circle cx="364.25" cy="47" r="2" fill="#fff"/>
    <circle cx="364.25" cy="64" r="2" fill="#fff"/>
    <circle cx="364.25" cy="98" r="2" fill="#fff"/>
    <circle cx="364.25" cy="81" r="2" fill="#fff"/>
    <circle cx="364.25" cy="132" r="2" fill="#fff"/>
    <circle cx="364.25" cy="149" r="2" fill="#fff"/>
    <circle cx="364.25" cy="166" r="2" fill="#fff"/>
    <circle cx="364.25" cy="183" r="2" fill="#fff"/>
    <circle cx="374.25" cy="106" r="2" fill="#fff"/>
    <circle cx="374.25" cy="4" r="2" fill="#fff"/>
    <circle cx="374.25" cy="21" r="2" fill="#fff"/>
    <circle cx="374.25" cy="38" r="2" fill="#fff"/>
    <circle cx="374.25" cy="55" r="2" fill="#fff"/>
    <circle cx="374.25" cy="89" r="2" fill="#fff"/>
    <circle cx="374.25" cy="72" r="2" fill="#fff"/>
    <circle cx="374.25" cy="123" r="2" fill="#fff"/>
    <circle cx="374.25" cy="140" r="2" fill="#fff"/>
    <circle cx="374.25" cy="157" r="2" fill="#fff"/>
    <circle cx="374.25" cy="174" r="2" fill="#fff"/>
    <circle cx="384.25" cy="115" r="2" fill="#fff"/>
    <circle cx="384.25" cy="13" r="2" fill="#fff"/>
    <circle cx="384.25" cy="30" r="2" fill="#fff"/>
    <circle cx="384.25" cy="47" r="2" fill="#fff"/>
    <circle cx="384.25" cy="64" r="2" fill="#fff"/>
    <circle cx="384.25" cy="98" r="2" fill="#fff"/>
    <circle cx="384.25" cy="81" r="2" fill="#fff"/>
    <circle cx="384.25" cy="132" r="2" fill="#fff"/>
    <circle cx="384.25" cy="149" r="2" fill="#fff"/>
    <circle cx="384.25" cy="166" r="2" fill="#fff"/>
    <path d="M383.78,182.46c.08,0,.15,0,.23,.01,.56-.28,1.21-.46,1.96-.49-.35-.58-.98-.98-1.71-.98-.99,0-1.81,.72-1.97,1.67,.45-.13,.95-.21,1.49-.21Z" fill="#fff"/>
    <circle cx="394.25" cy="106" r="2" fill="#fff"/>
    <circle cx="394.25" cy="4" r="2" fill="#fff"/>
    <circle cx="394.25" cy="21" r="2" fill="#fff"/>
    <circle cx="394.25" cy="38" r="2" fill="#fff"/>
    <circle cx="394.25" cy="55" r="2" fill="#fff"/>
    <circle cx="394.25" cy="89" r="2" fill="#fff"/>
    <circle cx="394.25" cy="72" r="2" fill="#fff"/>
    <circle cx="394.25" cy="123" r="2" fill="#fff"/>
    <circle cx="394.25" cy="140" r="2" fill="#fff"/>
    <circle cx="394.25" cy="157" r="2" fill="#fff"/>
    <circle cx="394.25" cy="174" r="2" fill="#fff"/>
    <circle cx="405.25" cy="115" r="2" fill="#fff"/>
    <circle cx="405.25" cy="13" r="2" fill="#fff"/>
    <circle cx="405.25" cy="30" r="2" fill="#fff"/>
    <circle cx="405.25" cy="47" r="2" fill="#fff"/>
    <circle cx="405.25" cy="64" r="2" fill="#fff"/>
    <circle cx="405.25" cy="98" r="2" fill="#fff"/>
    <circle cx="405.25" cy="81" r="2" fill="#fff"/>
    <circle cx="405.25" cy="132" r="2" fill="#fff"/>
    <circle cx="405.25" cy="149" r="2" fill="#fff"/>
    <circle cx="405.25" cy="166" r="2" fill="#fff"/>
    <circle cx="413.25" cy="107" r="2" fill="#fff"/>
    <circle cx="413.25" cy="5" r="2" fill="#fff"/>
    <circle cx="413.25" cy="22" r="2" fill="#fff"/>
    <circle cx="413.25" cy="39" r="2" fill="#fff"/>
    <circle cx="413.25" cy="56" r="2" fill="#fff"/>
    <circle cx="413.25" cy="90" r="2" fill="#fff"/>
    <circle cx="413.25" cy="73" r="2" fill="#fff"/>
    <circle cx="413.25" cy="124" r="2" fill="#fff"/>
    <circle cx="413.25" cy="141" r="2" fill="#fff"/>
    <circle cx="413.25" cy="158" r="2" fill="#fff"/>
    <circle cx="413.25" cy="175" r="2" fill="#fff"/>
    <circle cx="423.25" cy="98" r="2" fill="#fff"/>
    <circle cx="423.25" cy="13" r="2" fill="#fff"/>
    <circle cx="423.25" cy="30" r="2" fill="#fff"/>
    <circle cx="423.25" cy="47" r="2" fill="#fff"/>
    <circle cx="423.25" cy="81" r="2" fill="#fff"/>
    <circle cx="423.25" cy="64" r="2" fill="#fff"/>
    <circle cx="423.25" cy="115" r="2" fill="#fff"/>
    <circle cx="423.25" cy="132" r="2" fill="#fff"/>
    <circle cx="423.25" cy="149" r="2" fill="#fff"/>
    <circle cx="423.25" cy="166" r="2" fill="#fff"/>
    <circle cx="433.25" cy="107" r="2" fill="#fff"/>
    <circle cx="433.25" cy="5" r="2" fill="#fff"/>
    <circle cx="433.25" cy="22" r="2" fill="#fff"/>
    <circle cx="433.25" cy="39" r="2" fill="#fff"/>
    <circle cx="433.25" cy="56" r="2" fill="#fff"/>
    <circle cx="433.25" cy="90" r="2" fill="#fff"/>
    <circle cx="433.25" cy="73" r="2" fill="#fff"/>
    <circle cx="433.25" cy="124" r="2" fill="#fff"/>
    <circle cx="433.25" cy="141" r="2" fill="#fff"/>
    <circle cx="433.25" cy="158" r="2" fill="#fff"/>
    <circle cx="443.25" cy="98" r="2" fill="#fff"/>
    <circle cx="443.25" cy="13" r="2" fill="#fff"/>
    <circle cx="443.25" cy="30" r="2" fill="#fff"/>
    <circle cx="443.25" cy="47" r="2" fill="#fff"/>
    <circle cx="443.25" cy="81" r="2" fill="#fff"/>
    <circle cx="443.25" cy="64" r="2" fill="#fff"/>
    <circle cx="443.25" cy="115" r="2" fill="#fff"/>
    <circle cx="443.25" cy="132" r="2" fill="#fff"/>
    <circle cx="443.25" cy="149" r="2" fill="#fff"/>
    <circle cx="443.25" cy="166" r="2" fill="#fff"/>
    <circle cx="454.25" cy="107" r="2" fill="#fff"/>
    <circle cx="454.25" cy="5" r="2" fill="#fff"/>
    <circle cx="454.25" cy="22" r="2" fill="#fff"/>
    <circle cx="454.25" cy="39" r="2" fill="#fff"/>
    <circle cx="454.25" cy="56" r="2" fill="#fff"/>
    <circle cx="454.25" cy="90" r="2" fill="#fff"/>
    <circle cx="454.25" cy="73" r="2" fill="#fff"/>
    <circle cx="454.25" cy="124" r="2" fill="#fff"/>
    <circle cx="454.25" cy="141" r="2" fill="#fff"/>
    <circle cx="454.25" cy="158" r="2" fill="#fff"/>
    <circle cx="465.25" cy="98" r="2" fill="#fff"/>
    <circle cx="465.25" cy="13" r="2" fill="#fff"/>
    <circle cx="465.25" cy="30" r="2" fill="#fff"/>
    <circle cx="465.25" cy="47" r="2" fill="#fff"/>
    <circle cx="465.25" cy="81" r="2" fill="#fff"/>
    <circle cx="465.25" cy="64" r="2" fill="#fff"/>
    <circle cx="465.25" cy="115" r="2" fill="#fff"/>
    <circle cx="465.25" cy="132" r="2" fill="#fff"/>
    <circle cx="465.25" cy="149" r="2" fill="#fff"/>
    <path d="M464.33,167.76c.54-.21,1.16-.33,1.85-.33,.15,0,.29,.01,.44,.02,.39-.36,.64-.88,.64-1.45,0-1.1-.9-2-2-2s-2,.9-2,2c0,.77,.44,1.43,1.07,1.76Z" fill="#fff"/>
    <circle cx="475.25" cy="89" r="2" fill="#fff"/>
    <circle cx="475.25" cy="4" r="2" fill="#fff"/>
    <circle cx="475.25" cy="21" r="2" fill="#fff"/>
    <circle cx="475.25" cy="38" r="2" fill="#fff"/>
    <circle cx="475.25" cy="72" r="2" fill="#fff"/>
    <circle cx="475.25" cy="55" r="2" fill="#fff"/>
    <circle cx="475.25" cy="106" r="2" fill="#fff"/>
    <circle cx="475.25" cy="123" r="2" fill="#fff"/>
    <circle cx="475.25" cy="140" r="2" fill="#fff"/>
    <circle cx="475.25" cy="157" r="2" fill="#fff"/>
    <circle cx="485.25" cy="98" r="2" fill="#fff"/>
    <circle cx="485.25" cy="13" r="2" fill="#fff"/>
    <circle cx="485.25" cy="30" r="2" fill="#fff"/>
    <circle cx="485.25" cy="47" r="2" fill="#fff"/>
    <circle cx="485.25" cy="81" r="2" fill="#fff"/>
    <circle cx="485.25" cy="64" r="2" fill="#fff"/>
    <circle cx="485.25" cy="115" r="2" fill="#fff"/>
    <circle cx="485.25" cy="132" r="2" fill="#fff"/>
    <circle cx="485.25" cy="149" r="2" fill="#fff"/>
    <circle cx="495.25" cy="89" r="2" fill="#fff"/>
    <circle cx="495.25" cy="4" r="2" fill="#fff"/>
    <circle cx="495.25" cy="21" r="2" fill="#fff"/>
    <circle cx="495.25" cy="38" r="2" fill="#fff"/>
    <circle cx="495.25" cy="72" r="2" fill="#fff"/>
    <circle cx="495.25" cy="55" r="2" fill="#fff"/>
    <circle cx="495.25" cy="106" r="2" fill="#fff"/>
    <circle cx="495.25" cy="123" r="2" fill="#fff"/>
    <circle cx="495.25" cy="140" r="2" fill="#fff"/>
    <circle cx="495.25" cy="157" r="2" fill="#fff"/>
    <circle cx="506.25" cy="98" r="2" fill="#fff"/>
    <circle cx="506.25" cy="13" r="2" fill="#fff"/>
    <circle cx="506.25" cy="30" r="2" fill="#fff"/>
    <circle cx="506.25" cy="47" r="2" fill="#fff"/>
    <circle cx="506.25" cy="81" r="2" fill="#fff"/>
    <circle cx="506.25" cy="64" r="2" fill="#fff"/>
    <circle cx="506.25" cy="115" r="2" fill="#fff"/>
    <circle cx="506.25" cy="132" r="2" fill="#fff"/>
    <circle cx="506.25" cy="149" r="2" fill="#fff"/>
    <circle cx="516.25" cy="107" r="2" fill="#fff"/>
    <circle cx="516.25" cy="5" r="2" fill="#fff"/>
    <circle cx="516.25" cy="22" r="2" fill="#fff"/>
    <circle cx="516.25" cy="39" r="2" fill="#fff"/>
    <circle cx="516.25" cy="56" r="2" fill="#fff"/>
    <circle cx="516.25" cy="90" r="2" fill="#fff"/>
    <circle cx="516.25" cy="73" r="2" fill="#fff"/>
    <circle cx="516.25" cy="124" r="2" fill="#fff"/>
    <circle cx="516.25" cy="141" r="2" fill="#fff"/>
    <path d="M515.48,158.52c.24,0,.46,.01,.68,.04,.57-.23,1.22-.37,1.96-.37,.04,0,.07,0,.11,0,0-.06,.03-.12,.03-.19,0-1.1-.9-2-2-2s-2,.9-2,2c0,.22,.04,.43,.11,.63,.35-.07,.72-.11,1.11-.11Z" fill="#fff"/>
    <circle cx="526.25" cy="98" r="2" fill="#fff"/>
    <circle cx="526.25" cy="13" r="2" fill="#fff"/>
    <circle cx="526.25" cy="30" r="2" fill="#fff"/>
    <circle cx="526.25" cy="47" r="2" fill="#fff"/>
    <circle cx="526.25" cy="81" r="2" fill="#fff"/>
    <circle cx="526.25" cy="64" r="2" fill="#fff"/>
    <circle cx="526.25" cy="115" r="2" fill="#fff"/>
    <circle cx="526.25" cy="132" r="2" fill="#fff"/>
    <circle cx="526.25" cy="149" r="2" fill="#fff"/>
    <circle cx="536.25" cy="107" r="2" fill="#fff"/>
    <circle cx="536.25" cy="5" r="2" fill="#fff"/>
    <circle cx="536.25" cy="22" r="2" fill="#fff"/>
    <circle cx="536.25" cy="39" r="2" fill="#fff"/>
    <circle cx="536.25" cy="56" r="2" fill="#fff"/>
    <circle cx="536.25" cy="90" r="2" fill="#fff"/>
    <circle cx="536.25" cy="73" r="2" fill="#fff"/>
    <circle cx="536.25" cy="124" r="2" fill="#fff"/>
  </g>
</svg>