<?xml version="1.0" encoding="UTF-8"?>
<svg id="Layer_2" data-name="Layer 2" xmlns="http://www.w3.org/2000/svg" viewBox="0 0 263 448">
  <g id="Layer_2-2" data-name="Layer 2">
    <g id="Layer_1-2" data-name="Layer 1-2">
      <g>
        <rect x=".5" y=".5" width="262" height="447" rx="9.15" ry="9.15" fill="gray"/>
        <path d="M253.35,1c4.77,0,8.65,3.88,8.65,8.65V438.35c0,4.77-3.88,8.65-8.65,8.65H9.65c-4.77,0-8.65-3.88-8.65-8.65V9.65C1,4.88,4.88,1,9.65,1H253.35m0-1H9.65C4.32,0,0,4.32,0,9.65V438.35c0,5.33,4.32,9.65,9.65,9.65H253.35c5.33,0,9.65-4.32,9.65-9.65V9.65c0-5.33-4.32-9.65-9.65-9.65h0Z"/>
      </g>
      <g>
        <rect x="6.5" y="6.5" width="250" height="435" rx="7.1" ry="7.1" fill="#fff"/>
        <path d="M249.4,7c3.64,0,6.6,2.96,6.6,6.6V434.4c0,3.64-2.96,6.6-6.6,6.6H13.6c-3.64,0-6.6-2.96-6.6-6.6V13.6c0-3.64,2.96-6.6,6.6-6.6H249.4m0-1H13.6c-4.2,0-7.6,3.4-7.6,7.6V434.4c0,4.2,3.4,7.6,7.6,7.6H249.4c4.2,0,7.6-3.4,7.6-7.6V13.6c0-4.2-3.4-7.6-7.6-7.6h0Z"/>
      </g>
      <rect x="12" y="52" width="239" height="12" fill="#00a99d"/>
      <rect x="10" y="73" width="243" height="323" fill="#00ced9"/>
      <rect x="12" y="64" width="239" height="17" fill="#00f3e5"/>
      <path d="M14,72H51c0,6.62-5.38,12-12,12H14v-12h0Z" fill="#00f3e5"/>
      <g>
        <rect x="6.5" y="396.5" width="250" height="45" rx="6.37" ry="6.37" fill="#1a1a1a"/>
        <path d="M250.13,397c3.24,0,5.87,2.63,5.87,5.87v32.26c0,3.24-2.63,5.87-5.87,5.87H12.87c-3.24,0-5.87-2.63-5.87-5.87v-32.26c0-3.24,2.63-5.87,5.87-5.87H250.13m0-1H12.87c-3.79,0-6.87,3.08-6.87,6.87v32.26c0,3.79,3.08,6.87,6.87,6.87H250.13c3.79,0,6.87-3.08,6.87-6.87v-32.26c0-3.79-3.08-6.87-6.87-6.87h0Z"/>
      </g>
      <g>
        <rect x="6.5" y="6.5" width="250" height="45" rx="6.37" ry="6.37" fill="#1a1a1a"/>
        <path d="M250.13,7c3.24,0,5.87,2.63,5.87,5.87V45.13c0,3.24-2.63,5.87-5.87,5.87H12.87c-3.24,0-5.87-2.63-5.87-5.87V12.87c0-3.24,2.63-5.87,5.87-5.87H250.13m0-1H12.87c-3.79,0-6.87,3.08-6.87,6.87V45.13c0,3.79,3.08,6.87,6.87,6.87H250.13c3.79,0,6.87-3.08,6.87-6.87V12.87c0-3.79-3.08-6.87-6.87-6.87h0Z"/>
      </g>
      <rect x="6" y="45" width="8" height="363" fill="#1a1a1a"/>
      <rect x="249" y="41" width="8" height="363" fill="#1a1a1a"/>
      <path d="M110,408h43c6.08,0,11,4.92,11,11h0c0,6.08-4.92,11-11,11h-43c-6.08,0-11-4.92-11-11h0c0-6.08,4.92-11,11-11Z" fill="#333" stroke="#999" stroke-miterlimit="10"/>
      <circle cx="51.5" cy="29.5" r="5" fill="#333" stroke="#000" stroke-miterlimit="10"/>
      <polygon points="231 54.32 231 60.95 244.29 60.95 244.29 58.65 246 58.65 246 56.36 244.33 56.36 244.33 54.32 231 54.32" fill="lime" stroke="#fff" stroke-miterlimit="10" stroke-width=".5"/>
      <rect x="17" y="55" width="6" height="6" fill="#fff"/>
      <rect x="24" y="55" width="6" height="6" fill="#fff"/>
      <rect x="31" y="55" width="6" height="6" fill="#fff"/>
      <rect x="38" y="55" width="6" height="6" rx=".09" ry=".09" fill="#fff"/>
      <g transform="translate(48.38 60.39)" isolation="isolate">
        <text transform="translate(48.38 60.39)" fill="#fff" font-family="KohinoorTelugu-Regular, &apos;Kohinoor Telugu&apos;" font-size="7" isolation="isolate"><tspan x="0" y="0">GU</tspan></text>
      </g>
      <g transform="translate(114.45 76.86)" isolation="isolate">
        <text transform="translate(114.45 76.86)" fill="#fff" font-family="KohinoorTelugu-Bold, &apos;Kohinoor Telugu&apos;" font-size="11" isolation="isolate"><tspan x="0" y="0">home</tspan></text>
      </g>
      <g transform="translate(17.33 74.59)" isolation="isolate">
        <text transform="translate(17.33 74.59)" fill="#fff" font-family="KohinoorTelugu-Bold, &apos;Kohinoor Telugu&apos;" font-size="10" isolation="isolate"><tspan x="0" y="0">curio</tspan></text>
      </g>
      <g transform="translate(18.27 81.54)" isolation="isolate">
        <text transform="translate(18.27 81.54)" fill="#fff" font-family="KohinoorTelugu-Regular, &apos;Kohinoor Telugu&apos;" font-size="6" isolation="isolate"><tspan x="0" y="0">curiosi</tspan></text>
        <text transform="translate(36.38 81.54)" fill="#fff" font-family="KohinoorTelugu-Regular, &apos;Kohinoor Telugu&apos;" font-size="6" isolation="isolate" letter-spacing="-.02em"><tspan x="0" y="0">t</tspan></text>
        <text transform="translate(38.57 81.54)" fill="#fff" font-family="KohinoorTelugu-Regular, &apos;Kohinoor Telugu&apos;" font-size="6" isolation="isolate"><tspan x="0" y="0">y</tspan></text>
      </g>
    </g>
  </g>
</svg>