<?xml version="1.0" encoding="UTF-8"?>
<svg id="Layer_2" data-name="Layer 2" xmlns="http://www.w3.org/2000/svg" viewBox="0 0 263 448">
  <g id="Layer_1-2" data-name="Layer 1">
    <g>
      <rect x=".5" y=".5" width="262" height="447" rx="9.15" ry="9.15" fill="gray"/>
      <path d="M253.35,1c4.77,0,8.65,3.88,8.65,8.65V438.35c0,4.77-3.88,8.65-8.65,8.65H9.65c-4.77,0-8.65-3.88-8.65-8.65V9.65C1,4.88,4.88,1,9.65,1H253.35m0-1H9.65C4.32,0,0,4.32,0,9.65V438.35c0,5.33,4.32,9.65,9.65,9.65H253.35c5.33,0,9.65-4.32,9.65-9.65V9.65c0-5.33-4.32-9.65-9.65-9.65h0Z"/>
    </g>
    <g>
      <rect x="6.5" y="6.5" width="250" height="435" rx="7.1" ry="7.1" fill="#fff"/>
      <path d="M249.4,7c3.64,0,6.6,2.96,6.6,6.6V434.4c0,3.64-2.96,6.6-6.6,6.6H13.6c-3.64,0-6.6-2.96-6.6-6.6V13.6c0-3.64,2.96-6.6,6.6-6.6H249.4m0-1H13.6c-4.2,0-7.6,3.4-7.6,7.6V434.4c0,4.2,3.4,7.6,7.6,7.6H249.4c4.2,0,7.6-3.4,7.6-7.6V13.6c0-4.2-3.4-7.6-7.6-7.6h0Z"/>
    </g>
    <g>
      <rect x="6.5" y="396.5" width="250" height="45" rx="6.37" ry="6.37" fill="#1a1a1a"/>
      <path d="M250.13,397c3.24,0,5.87,2.63,5.87,5.87v32.26c0,3.24-2.63,5.87-5.87,5.87H12.87c-3.24,0-5.87-2.63-5.87-5.87v-32.26c0-3.24,2.63-5.87,5.87-5.87H250.13m0-1H12.87c-3.79,0-6.87,3.08-6.87,6.87v32.26c0,3.79,3.08,6.87,6.87,6.87H250.13c3.79,0,6.87-3.08,6.87-6.87v-32.26c0-3.79-3.08-6.87-6.87-6.87h0Z"/>
    </g>
    <g>
      <rect x="6.5" y="6.5" width="250" height="45" rx="6.37" ry="6.37" fill="#1a1a1a"/>
      <path d="M250.13,7c3.24,0,5.87,2.63,5.87,5.87V45.13c0,3.24-2.63,5.87-5.87,5.87H12.87c-3.24,0-5.87-2.63-5.87-5.87V12.87c0-3.24,2.63-5.87,5.87-5.87H250.13m0-1H12.87c-3.79,0-6.87,3.08-6.87,6.87V45.13c0,3.79,3.08,6.87,6.87,6.87H250.13c3.79,0,6.87-3.08,6.87-6.87V12.87c0-3.79-3.08-6.87-6.87-6.87h0Z"/>
    </g>
    <rect x="6" y="45" width="8" height="363" fill="#1a1a1a"/>
    <rect x="249" y="41" width="8" height="363" fill="#1a1a1a"/>
    <rect x="99" y="408" width="65" height="22" rx="11" ry="11" fill="#333" stroke="#999" stroke-miterlimit="10"/>
    <circle cx="51.5" cy="29.5" r="5" fill="#333" stroke="#000" stroke-miterlimit="10"/>
  </g>
</svg>