<?xml version="1.0" encoding="UTF-8"?>
<svg id="Layer_2" data-name="Layer 2" xmlns="http://www.w3.org/2000/svg" viewBox="0 0 263 448">
  <g id="Layer_1-2" data-name="Layer 1">
    <g>
      <rect x=".5" y=".5" width="262" height="447" rx="9.15" ry="9.15" fill="gray"/>
      <path d="M253.35,1c4.77,0,8.65,3.88,8.65,8.65V438.35c0,4.77-3.88,8.65-8.65,8.65H9.65c-4.77,0-8.65-3.88-8.65-8.65V9.65C1,4.88,4.88,1,9.65,1H253.35m0-1H9.65C4.32,0,0,4.32,0,9.65V438.35c0,5.33,4.32,9.65,9.65,9.65H253.35c5.33,0,9.65-4.32,9.65-9.65V9.65c0-5.33-4.32-9.65-9.65-9.65h0Z"/>
    </g>
    <g>
      <rect x="6.5" y="6.5" width="250" height="435" rx="7.1" ry="7.1" fill="#fff"/>
      <path d="M249.4,7c3.64,0,6.6,2.96,6.6,6.6V434.4c0,3.64-2.96,6.6-6.6,6.6H13.6c-3.64,0-6.6-2.96-6.6-6.6V13.6c0-3.64,2.96-6.6,6.6-6.6H249.4m0-1H13.6c-4.2,0-7.6,3.4-7.6,7.6V434.4c0,4.2,3.4,7.6,7.6,7.6H249.4c4.2,0,7.6-3.4,7.6-7.6V13.6c0-4.2-3.4-7.6-7.6-7.6h0Z"/>
    </g>
    <rect x="12" y="357" width="239" height="39" fill="#00a99d"/>
    <rect x="12" y="52" width="239" height="12" fill="#00a99d"/>
    <rect x="10" y="73" width="243" height="284" fill="#00ced9"/>
    <rect x="12" y="64" width="239" height="17" fill="#00f3e5"/>
    <path d="M14,72H51c0,6.62-5.38,12-12,12H14v-12h0Z" fill="#00f3e5"/>
    <g>
      <rect x="6.5" y="396.5" width="250" height="45" rx="6.37" ry="6.37" fill="#1a1a1a"/>
      <path d="M250.13,397c3.24,0,5.87,2.63,5.87,5.87v32.26c0,3.24-2.63,5.87-5.87,5.87H12.87c-3.24,0-5.87-2.63-5.87-5.87v-32.26c0-3.24,2.63-5.87,5.87-5.87H250.13m0-1H12.87c-3.79,0-6.87,3.08-6.87,6.87v32.26c0,3.79,3.08,6.87,6.87,6.87H250.13c3.79,0,6.87-3.08,6.87-6.87v-32.26c0-3.79-3.08-6.87-6.87-6.87h0Z"/>
    </g>
    <g>
      <rect x="6.5" y="6.5" width="250" height="45" rx="6.37" ry="6.37" fill="#1a1a1a"/>
      <path d="M250.13,7c3.24,0,5.87,2.63,5.87,5.87V45.13c0,3.24-2.63,5.87-5.87,5.87H12.87c-3.24,0-5.87-2.63-5.87-5.87V12.87c0-3.24,2.63-5.87,5.87-5.87H250.13m0-1H12.87c-3.79,0-6.87,3.08-6.87,6.87V45.13c0,3.79,3.08,6.87,6.87,6.87H250.13c3.79,0,6.87-3.08,6.87-6.87V12.87c0-3.79-3.08-6.87-6.87-6.87h0Z"/>
    </g>
    <rect x="6" y="45" width="8" height="363" fill="#1a1a1a"/>
    <rect x="249" y="41" width="8" height="363" fill="#1a1a1a"/>
    <rect x="99" y="408" width="65" height="22" rx="11" ry="11" fill="#333" stroke="#999" stroke-miterlimit="10"/>
    <circle cx="51.5" cy="29.5" r="5" fill="#333" stroke="#000" stroke-miterlimit="10"/>
    <polygon points="231 54.32 231 60.95 244.29 60.95 244.29 58.65 246 58.65 246 56.36 244.33 56.36 244.33 54.32 231 54.32" fill="lime" stroke="#fff" stroke-miterlimit="10" stroke-width=".5"/>
    <rect x="17" y="55" width="6" height="6" fill="#fff"/>
    <rect x="24" y="55" width="6" height="6" fill="#fff"/>
    <rect x="31" y="55" width="6" height="6" fill="#fff"/>
    <rect x="38" y="55" width="6" height="6" rx=".09" ry=".09" fill="#fff"/>
    <text transform="translate(48.38 60.39)" fill="#fff" font-family="KohinoorTelugu-Regular, &apos;Kohinoor Telugu&apos;" font-size="7"><tspan x="0" y="0">GU</tspan></text>
    <line x1="28" y1="367" x2="51" y2="367" fill="none" stroke="#fff" stroke-miterlimit="10" stroke-width="2"/>
    <line x1="28" y1="376" x2="51" y2="376" fill="none" stroke="#fff" stroke-miterlimit="10" stroke-width="2"/>
    <line x1="28" y1="385" x2="51" y2="385" fill="none" stroke="#fff" stroke-miterlimit="10" stroke-width="2"/>
    <circle cx="222" cy="374" r="7" fill="none" stroke="#fff" stroke-miterlimit="10" stroke-width="2"/>
    <line x1="227" y1="379" x2="233" y2="385" fill="none" stroke="#fff" stroke-miterlimit="10" stroke-width="2"/>
    <circle cx="219" cy="378" r="2" fill="#fff" stroke="#fff" stroke-miterlimit="10" stroke-width="2"/>
    <g id="Layer_3" data-name="Layer 3">
      <path d="M173.26,375.73l-10.26,10.26-10.26-10.26c-2.34-2.34-2.34-6.15,0-8.49h0c2.34-2.34,6.15-2.34,8.49,0l1.77,1.77,1.77-1.77c2.34-2.34,6.15-2.34,8.49,0h0c2.34,2.34,2.34,6.15,0,8.49Z" fill="none" stroke="#fff" stroke-miterlimit="10" stroke-width="2"/>
      <path d="M104.01,382h-9.27c-1.12,0-2.66-.63-3.4-1.52-.44-.53-.46-1.3-.08-1.87l1.23-1.85c1.18-1.65,1.4-3.84,1.63-5.86,.36-3.13,1.56-5.36,5.1-5.36h0c3.62,0,4.79,2.33,5.12,5.58,.19,1.88,.85,3.68,1.94,5.22l1.29,1.8c.68,.95,.44,2.29-.55,2.91-.92,.58-2.16,.96-3.02,.96Z" fill="none" stroke="#fff" stroke-miterlimit="10" stroke-width="2"/>
      <line x1="100" y1="382" x2="100" y2="386" fill="none" stroke="#fff" stroke-miterlimit="10" stroke-width="4"/>
    </g>
    <text transform="translate(114.45 76.86)" fill="#fff" font-family="KohinoorTelugu-Bold, &apos;Kohinoor Telugu&apos;" font-size="11"><tspan x="0" y="0">home</tspan></text>
    <text transform="translate(17.33 74.59)" fill="#fff" font-family="KohinoorTelugu-Bold, &apos;Kohinoor Telugu&apos;" font-size="10"><tspan x="0" y="0">curio</tspan></text>
    <text transform="translate(18.27 81.54)" fill="#fff" font-family="KohinoorTelugu-Regular, &apos;Kohinoor Telugu&apos;" font-size="6"><tspan x="0" y="0">curiosi</tspan><tspan x="18.11" y="0" letter-spacing="-.02em">t</tspan><tspan x="20.3" y="0">y</tspan></text>
  </g>
</svg>